<svg width="32" height="32" viewBox="0 0 32 32" fill="none" xmlns="http://www.w3.org/2000/svg">
<path fill-rule="evenodd" clip-rule="evenodd" d="M4.05973 15.567C4.05973 22.0609 8.76799 26.4854 14.0565 27.4006C14.2004 27.4255 14.3379 27.4786 14.4613 27.5566C14.5847 27.6347 14.6914 27.7364 14.7755 27.8557C14.8596 27.9751 14.9194 28.1098 14.9514 28.2523C14.9834 28.3947 14.9871 28.5421 14.9621 28.6859C14.9372 28.8298 14.8842 28.9673 14.8061 29.0907C14.728 29.2141 14.6264 29.3208 14.507 29.4049C14.3877 29.489 14.2529 29.5488 14.1105 29.5808C13.968 29.6128 13.8206 29.6165 13.6768 29.5915C7.46666 28.5163 1.83679 23.2811 1.83679 15.567C1.83679 12.2881 3.32799 9.71099 5.06879 7.75259C6.31679 6.34886 7.74399 5.20753 8.89173 4.33499H5.40159C5.11869 4.33499 4.84738 4.22261 4.64734 4.02257C4.44731 3.82254 4.33493 3.55122 4.33493 3.26833C4.33493 2.98543 4.44731 2.71412 4.64734 2.51408C4.84738 2.31404 5.11869 2.20166 5.40159 2.20166H11.8016C12.0845 2.20166 12.3558 2.31404 12.5558 2.51408C12.7559 2.71412 12.8683 2.98543 12.8683 3.26833V9.66833C12.8683 9.95122 12.7559 10.2225 12.5558 10.4226C12.3558 10.6226 12.0845 10.735 11.8016 10.735C11.5187 10.735 11.2474 10.6226 11.0473 10.4226C10.8473 10.2225 10.7349 9.95122 10.7349 9.66833V5.73019L10.7328 5.73446C9.51253 6.65179 8.02346 7.77606 6.73279 9.22886C5.20746 10.9441 4.05973 13.0198 4.05973 15.567ZM27.7568 16.4331C27.7568 10.0075 23.1488 5.61073 17.9285 4.62939C17.783 4.60471 17.6439 4.55129 17.5193 4.47227C17.3946 4.39324 17.287 4.29019 17.2026 4.16912C17.1182 4.04804 17.0588 3.91138 17.0278 3.7671C16.9968 3.62282 16.9948 3.47381 17.022 3.32876C17.0492 3.18371 17.105 3.04553 17.1862 2.92228C17.2674 2.79903 17.3723 2.69318 17.4948 2.6109C17.6173 2.52862 17.755 2.47156 17.8997 2.44306C18.0445 2.41455 18.1936 2.41516 18.3381 2.44486C24.4693 3.59686 29.9797 8.80219 29.9797 16.4331C29.9797 19.7121 28.4885 22.287 26.7477 24.2475C25.4997 25.6513 24.0725 26.7926 22.9248 27.6651H26.4149C26.6978 27.6651 26.9691 27.7775 27.1692 27.9775C27.3692 28.1776 27.4816 28.4489 27.4816 28.7318C27.4816 29.0147 27.3692 29.286 27.1692 29.486C26.9691 29.6861 26.6978 29.7985 26.4149 29.7985H20.0149C19.732 29.7985 19.4607 29.6861 19.2607 29.486C19.0606 29.286 18.9483 29.0147 18.9483 28.7318V22.3318C18.9483 22.0489 19.0606 21.7776 19.2607 21.5775C19.4607 21.3775 19.732 21.2651 20.0149 21.2651C20.2978 21.2651 20.5691 21.3775 20.7692 21.5775C20.9692 21.7776 21.0816 22.0489 21.0816 22.3318V26.2678H21.0859C22.304 25.3462 23.7952 24.2241 25.0837 22.7691C26.6091 21.0561 27.7568 18.9825 27.7568 16.4331Z" fill="white"/>
</svg>
